HIERARCHY
ROOT Hips
{
	OFFSET 0.000000 0.000000 0.000000
	CHANNELS 6 Xposition Yposition Zposition Xrotation Yrotation Zrotation
	JOINT LeftUpLeg_virtual
	{
		OFFSET 0.000000 0.000000 0.000000
		CHANNELS 3 Xrotation Yrotation Zrotation
		JOINT LeftUpLeg
		{
			OFFSET 13.026900 -6.336304 -1.092800
			CHANNELS 3 Xrotation Yrotation Zrotation
			JOINT LeftLeg
			{
				OFFSET 0.524474 -46.096886 9.782700
				CHANNELS 3 Xrotation Yrotation Zrotation
				JOINT LeftFoot
				{
					OFFSET -0.524474 -53.427422 -12.948200
					CHANNELS 3 Xrotation Yrotation Zrotation
					JOINT LeftToeBase
					{
						OFFSET 0.192200 -14.009700 16.364100
						CHANNELS 3 Xrotation Yrotation Zrotation
						JOINT LeftToe_End
						{
							OFFSET -1.784700 -0.561700 9.474800
							CHANNELS 3 Xrotation Yrotation Zrotation
							End Site
							{
								OFFSET 0 0 0
							}
						}
					}
				}
			}
		}
	}
	JOINT RightUpLeg_virtual
	{
		OFFSET 0.000000 0.000000 0.000000
		CHANNELS 3 Xrotation Yrotation Zrotation
		JOINT RightUpLeg
		{
			OFFSET -12.883000 -6.336304 -1.092800
			CHANNELS 3 Xrotation Yrotation Zrotation
			JOINT RightLeg
			{
				OFFSET -0.524587 -46.096825 9.782800
				CHANNELS 3 Xrotation Yrotation Zrotation
				JOINT RightFoot
				{
					OFFSET 0.524587 -53.427383 -12.948300
					CHANNELS 3 Xrotation Yrotation Zrotation
					JOINT RightToeBase
					{
						OFFSET -0.192200 -14.009700 16.364100
						CHANNELS 3 Xrotation Yrotation Zrotation
						JOINT RightToe_End
						{
							OFFSET 1.784700 -0.561700 9.474800
							CHANNELS 3 Xrotation Yrotation Zrotation
							End Site
							{
								OFFSET 0 0 0
							}
						}
					}
				}
			}
		}
	}
	JOINT Spine_virtual
	{
		OFFSET 0.000000 0.000000 0.000000
		CHANNELS 3 Xrotation Yrotation Zrotation
		JOINT Spine
		{
			OFFSET 0.072000 7.257294 -0.789700
			CHANNELS 3 Xrotation Yrotation Zrotation
			JOINT Spine1
			{
				OFFSET 0.000000 12.508769 -0.658067
				CHANNELS 3 Xrotation Yrotation Zrotation
				JOINT Spine1_split
				{
					OFFSET 0.000000 12.508769 -0.658067
					CHANNELS 3 Xrotation Yrotation Zrotation
					JOINT Spine2
					{
						OFFSET 0.000000 12.508769 -0.658067
						CHANNELS 3 Xrotation Yrotation Zrotation
						JOINT Neck_virtual
						{
							OFFSET 0.000000 0.000000 0.000000
							CHANNELS 3 Xrotation Yrotation Zrotation
							JOINT Neck
							{
								OFFSET 0.000000 14.033295 7.520400
								CHANNELS 3 Xrotation Yrotation Zrotation
								JOINT Head
								{
									OFFSET 0.000000 8.198502 5.703100
									CHANNELS 3 Xrotation Yrotation Zrotation
									JOINT HeadTop_End
									{
										OFFSET 0.000000 17.760803 13.332701
										CHANNELS 3 Xrotation Yrotation Zrotation
										End Site
										{
											OFFSET 0 0 0
										}
									}
								}
							}
						}
						JOINT LeftShoulder_virtual
						{
							OFFSET 0.000000 0.000000 0.000000
							CHANNELS 3 Xrotation Yrotation Zrotation
							JOINT LeftShoulder
							{
								OFFSET 6.292450 5.785301 -0.669000
								CHANNELS 3 Xrotation Yrotation Zrotation
								JOINT LeftShoulder_split
								{
									OFFSET 6.292450 5.785301 -0.669000
									CHANNELS 3 Xrotation Yrotation Zrotation
									JOINT LeftArm
									{
										OFFSET 13.907140 -6.093903 1.965100
										CHANNELS 3 Xrotation Yrotation Zrotation
										JOINT LeftForeArm
										{
											OFFSET 34.140198 0.000000 0.000000
											CHANNELS 3 Xrotation Yrotation Zrotation
											JOINT LeftHand
											{
												OFFSET 40.960209 0.000000 0.000000
												CHANNELS 3 Xrotation Yrotation Zrotation
												End Site
												{
													OFFSET 0 0 0
												}
											}
										}
									}
								}
							}
						}
						JOINT RightShoulder_virtual
						{
							OFFSET 0.000000 0.000000 0.000000
							CHANNELS 3 Xrotation Yrotation Zrotation
							JOINT RightShoulder
							{
								OFFSET -6.292450 5.785301 -0.669000
								CHANNELS 3 Xrotation Yrotation Zrotation
								JOINT RightShoulder_split
								{
									OFFSET -6.292450 5.785301 -0.669000
									CHANNELS 3 Xrotation Yrotation Zrotation
									JOINT RightArm
									{
										OFFSET -13.907140 -6.093903 1.965100
										CHANNELS 3 Xrotation Yrotation Zrotation
										JOINT RightForeArm
										{
											OFFSET -34.140198 0.000000 0.000000
											CHANNELS 3 Xrotation Yrotation Zrotation
											JOINT RightHand
											{
												OFFSET -40.960209 0.000000 0.000000
												CHANNELS 3 Xrotation Yrotation Zrotation
												End Site
												{
													OFFSET 0 0 0
												}
											}
										}
									}
								}
							}
						}
					}
				}
			}
		}
	}
}
MOTION
Frames: 7
Frame Time: 0.03333333
1.560797 225.699066 -26.330282 0.000000 0.000000 0.000000 7.804491 -5.628207 0.945896 -88.559427 17.347091 21.440587 91.344874 5.786406 9.983348 3.262836 7.223822 -27.203585 18.036318 -2.810749 15.604721 0.000000 0.000000 0.000000 7.804491 -5.628207 0.945896 -107.923867 16.493414 -10.524956 108.091575 -11.253434 -0.106342 15.921384 -6.174319 33.315296 -0.868737 3.731862 7.626967 0.000000 0.000000 0.000000 7.804491 -5.628207 0.945896 6.989036 -1.859999 -1.195019 13.996686 -1.811982 -1.211085 0.000000 0.000000 0.000000 0.000000 0.000000 0.000000 13.996677 -1.811983 -1.211085 -24.372379 5.014637 -0.945693 -1.224028 -6.048549 6.641317 0.000000 0.000000 0.000000 13.996677 -1.811983 -1.211085 -1.844320 -14.027011 26.494092 0.000000 0.000000 0.000000 -63.430382 -7.026754 -16.234093 23.387147 -71.240342 49.981849 0.000000 0.000000 0.000000 13.996677 -1.811983 -1.211085 5.983847 16.525182 -13.888777 0.000000 0.000000 0.000000 -72.297129 38.279700 21.699745 -16.158305 59.491412 -20.424357 0.000000 0.000000 0.000000 
2.181188 226.501617 -27.528463 0.000000 0.000000 0.000000 5.210347 -6.861285 0.437285 -95.848495 12.063593 23.547185 95.622321 2.946519 5.675394 1.094706 8.178282 -28.449126 17.823153 -1.543959 16.681608 0.000000 0.000000 0.000000 5.210347 -6.861285 0.437285 -111.930353 11.129605 -10.710042 104.615159 -8.530561 -2.236341 14.389170 -6.473779 34.601076 2.511553 3.761214 3.542731 0.000000 0.000000 0.000000 5.210347 -6.861285 0.437285 8.443835 -1.247781 -0.729666 16.887416 -1.177192 -1.114029 0.000000 0.000000 0.000000 0.000000 0.000000 0.000000 16.887422 -1.177190 -1.114029 -26.807217 6.493740 -1.451445 4.682586 -9.389105 9.652371 0.000000 0.000000 0.000000 16.887422 -1.177190 -1.114029 -0.612878 -14.977176 27.292794 0.000000 0.000000 0.000000 -67.334764 -8.203789 -15.014250 16.808293 -68.480269 48.053031 0.000000 0.000000 0.000000 16.887422 -1.177190 -1.114029 6.218773 17.756043 -13.894190 0.000000 0.000000 0.000000 -82.947962 43.284517 24.548748 -18.192424 53.742456 -21.031674 0.000000 0.000000 0.000000 
2.875499 227.623138 -29.075949 0.000000 0.000000 0.000000 2.542416 -7.477849 0.324655 -100.159820 10.052747 23.317195 93.023420 0.069676 3.038468 1.254076 8.158605 -27.695280 15.821423 -0.277170 14.834010 0.000000 0.000000 0.000000 2.542416 -7.477849 0.324655 -110.436536 4.252791 -11.909496 96.169432 -3.379585 -3.118822 9.269286 -7.163683 31.444391 6.672928 3.651667 0.751855 0.000000 0.000000 0.000000 2.542416 -7.477849 0.324655 9.692305 -0.570670 -0.509665 19.380868 -0.593884 -1.137935 0.000000 0.000000 0.000000 0.000000 0.000000 0.000000 19.380863 -0.593884 -1.137936 -27.906162 8.033923 -1.876915 10.220151 -12.179001 11.188144 0.000000 0.000000 0.000000 19.380863 -0.593884 -1.137936 1.416569 -16.917217 27.896842 0.000000 0.000000 0.000000 -71.463935 -13.211106 -13.429076 5.023533 -63.827244 43.312487 0.000000 0.000000 0.000000 19.380863 -0.593884 -1.137936 7.401558 20.145761 -15.002644 0.000000 0.000000 0.000000 -85.334806 46.412249 18.300093 -22.943297 49.160246 -18.542893 0.000000 0.000000 0.000000 
3.393593 228.427124 -31.197474 0.000000 0.000000 0.000000 0.337448 -7.725986 0.478335 -98.943985 11.468479 21.039305 83.786935 -3.476286 2.055769 2.286192 7.434925 -23.582557 13.718340 0.384946 10.233514 0.000000 0.000000 0.000000 0.337448 -7.725986 0.478335 -103.851128 -2.941494 -12.892911 82.885561 2.868529 -2.528145 3.124508 -7.108009 23.424199 9.719084 3.798748 0.434065 0.000000 0.000000 0.000000 0.337448 -7.725986 0.478335 10.659198 -0.030455 -0.384018 21.316524 -0.290757 -1.141270 0.000000 0.000000 0.000000 0.000000 0.000000 0.000000 21.316525 -0.290756 -1.141270 -27.499849 9.287822 -2.027715 13.878551 -13.401405 11.047123 0.000000 0.000000 0.000000 21.316525 -0.290756 -1.141270 3.604428 -18.354383 29.488017 0.000000 0.000000 0.000000 -73.580760 -16.357425 -9.940290 -5.383957 -59.850147 38.716886 0.000000 0.000000 0.000000 21.316525 -0.290756 -1.141270 8.955276 22.064445 -17.026263 0.000000 0.000000 0.000000 -80.139094 47.684249 5.475430 -28.400622 45.367233 -14.783362 0.000000 0.000000 0.000000 
3.497122 228.150482 -33.291969 0.000000 0.000000 0.000000 -1.321887 -7.896079 0.647584 -93.713139 14.392105 18.312352 71.482383 -7.515027 1.957312 5.791822 5.852629 -15.668246 10.661661 -0.964719 4.048690 0.000000 0.000000 0.000000 -1.321887 -7.896079 0.647584 -95.121353 -9.691600 -13.118475 67.376743 7.427300 -1.100683 0.497617 -5.270581 14.707861 8.746698 5.421395 2.287676 0.000000 0.000000 0.000000 -1.321887 -7.896079 0.647584 11.262487 0.314504 -0.239171 22.525114 -0.233015 -1.044681 0.000000 0.000000 0.000000 0.000000 0.000000 0.000000 22.525102 -0.233014 -1.044683 -25.698162 10.045507 -1.883914 15.556657 -13.234733 9.919602 0.000000 0.000000 0.000000 22.525102 -0.233014 -1.044683 4.957419 -18.168879 31.734558 0.000000 0.000000 0.000000 -73.124388 -15.655251 -5.604237 -14.257578 -56.993865 32.782541 0.000000 0.000000 0.000000 22.525102 -0.233014 -1.044683 10.130638 22.158373 -19.697091 0.000000 0.000000 0.000000 -74.150036 46.992094 -5.532340 -32.523039 41.786616 -11.731373 0.000000 0.000000 0.000000 
3.175104 226.349091 -34.699944 0.000000 0.000000 0.000000 -2.846610 -8.061704 0.690534 -86.435279 18.043575 16.233230 59.572445 -11.836511 1.567751 7.155003 5.659039 -6.021835 4.046284 -3.570646 -0.781749 0.000000 0.000000 0.000000 -2.846610 -8.061704 0.690534 -86.796500 -16.022186 -12.316679 51.977955 8.249659 0.015658 6.583464 -2.124814 9.304074 -17.379380 7.288167 9.901535 0.000000 0.000000 0.000000 -2.846610 -8.061704 0.690534 11.507615 0.550745 -0.037658 23.017545 -0.255261 -0.881366 0.000000 0.000000 0.000000 0.000000 0.000000 0.000000 23.017533 -0.255259 -0.881366 -22.914598 10.339472 -1.585264 16.071094 -12.467580 8.595113 0.000000 0.000000 0.000000 23.017533 -0.255259 -0.881366 5.058427 -16.552472 33.912282 0.000000 0.000000 0.000000 -71.568744 -13.168076 -2.777422 -21.755563 -53.568737 25.644502 0.000000 0.000000 0.000000 23.017533 -0.255259 -0.881366 11.038695 20.184404 -23.873263 0.000000 0.000000 0.000000 -71.352152 44.246655 -10.401445 -35.120307 38.850621 -10.056455 0.000000 0.000000 0.000000 
2.280070 223.128082 -34.803879 0.000000 0.000000 0.000000 -4.846613 -6.690690 1.790719 -73.445243 23.662734 11.443488 42.543073 -16.008389 1.046718 9.203323 5.281749 0.861886 -42.966702 -3.301430 -3.696537 0.000000 0.000000 0.000000 -4.846613 -6.690690 1.790719 -85.112210 -19.212694 -14.317957 48.280927 7.909613 0.031522 8.011701 -0.079823 7.874156 -36.315057 5.744774 14.518609 0.000000 0.000000 0.000000 -4.846613 -6.690690 1.790719 11.522110 -0.754747 -0.649775 23.047903 -0.227260 -0.703353 0.000000 0.000000 0.000000 0.000000 0.000000 0.000000 23.047876 -0.227259 -0.703355 -19.722764 10.349837 -1.312148 16.120126 -11.699939 7.306048 0.000000 0.000000 0.000000 23.047876 -0.227259 -0.703355 4.501761 -14.521503 35.751013 0.000000 0.000000 0.000000 -69.727776 -11.772265 -1.413576 -27.740332 -47.885876 18.457756 0.000000 0.000000 0.000000 23.047876 -0.227259 -0.703355 12.242686 17.018050 -30.451053 0.000000 0.000000 0.000000 -70.717962 38.069115 -10.863252 -37.434170 37.108991 -9.049464 0.000000 0.000000 0.000000 
